<?xml version="1.0" encoding="utf-8"?>
<!-- Generator: Adobe Illustrator 18.1.1, SVG Export Plug-In . SVG Version: 6.00 Build 0)  -->
<svg version="1.1" id="Layer_2" xmlns="http://www.w3.org/2000/svg" xmlns:xlink="http://www.w3.org/1999/xlink" x="0px" y="0px"
	 viewBox="0 0 16 16" enable-background="new 0 0 16 16" xml:space="preserve">
<g>
	<path fill="#FFFFFF" d="M10.9,10.3c-0.5,0-1,0.2-1.5,0.4L7.8,9.1C7.9,8.8,8,8.4,8,8c0-0.4-0.1-0.8-0.2-1.1l1.6-1.6
		c0.4,0.3,0.9,0.4,1.5,0.4c1.6,0,2.9-1.3,2.9-2.9c0-1.6-1.3-2.9-2.9-2.9C9.3,0,8,1.3,8,2.9c0,0.4,0.1,0.8,0.3,1.2L6.7,5.6
		c-0.5-0.3-1-0.5-1.6-0.5C3.6,5.2,2.3,6.4,2.3,8c0,1.6,1.3,2.9,2.9,2.9c0.6,0,1.1-0.2,1.6-0.5l1.5,1.5C8.1,12.3,8,12.7,8,13.1
		c0,1.6,1.3,2.9,2.9,2.9c1.6,0,2.9-1.3,2.9-2.9C13.7,11.5,12.4,10.3,10.9,10.3z"/>
</g>
</svg>
