<?xml version="1.0" encoding="utf-8"?>
<!-- Generator: Adobe Illustrator 18.1.1, SVG Export Plug-In . SVG Version: 6.00 Build 0)  -->
<svg version="1.1" id="Layer_2" xmlns="http://www.w3.org/2000/svg" xmlns:xlink="http://www.w3.org/1999/xlink" x="0px" y="0px"
	 viewBox="0 0 16 16" enable-background="new 0 0 16 16" xml:space="preserve">
<g>
	<path fill-rule="evenodd" clip-rule="evenodd" fill="#757575" d="M12.6,1h-2.5v1h2.1c0.3,0,0.5,0.2,0.5,0.5v3v2.2v6.8
		c0,0.3-0.2,0.5-0.5,0.5H6.9H6.5H3.9c-0.3,0-0.5-0.2-0.5-0.5V2.6C3.4,2.3,3.6,2,3.9,2H6V1H3.4c-0.6,0-1,0.5-1,1v12.9
		c0,0.6,0.5,1,1,1h2.5H8h4.6c0.6,0,1.1-0.5,1.1-1v-8V5.8V2C13.7,1.5,13.2,1,12.6,1z"/>
	<path fill-rule="evenodd" clip-rule="evenodd" fill="#737373" d="M5.6,2.6c-0.2,0-0.4,0.1-0.4,0.3s0,0.5,0,0.5h5.6c0,0,0-0.4,0-0.5
		s-0.2-0.3-0.4-0.3H9.2V0.4c-1.2-0.9-2.4,0-2.4,0l0,2.2H5.6z"/>
	<g>
		<path fill="#757575" d="M11.8,7.3l-4.1,4.1c-0.1,0.1-0.3,0.1-0.4,0l-0.1-0.1l0,0l-0.1-0.1l-0.4-0.4l0,0L4.9,9.1
			c-0.1-0.1-0.1-0.3,0-0.4l0.6-0.6C5.6,8,5.8,8,5.9,8.1l1.6,1.6l3.4-3.4c0.1-0.1,0.3-0.1,0.4,0l0.6,0.6C11.9,7,11.9,7.2,11.8,7.3z"
			/>
	</g>
</g>
</svg>
