<?xml version="1.0" encoding="utf-8"?>
<!-- Generator: Adobe Illustrator 18.1.1, SVG Export Plug-In . SVG Version: 6.00 Build 0)  -->
<svg version="1.1" id="Layer_2" xmlns="http://www.w3.org/2000/svg" xmlns:xlink="http://www.w3.org/1999/xlink" x="0px" y="0px"
	 viewBox="0 0 16 16" enable-background="new 0 0 16 16" xml:space="preserve">
<path id="_x3C_Compound_Path_x3E__3_" fill="#757575" d="M10.9,3.1C10.2,1.2,9.2,0,8.1,0C7,0,6,1.3,5.3,3.2C4.7,3.1,4.2,3,3.6,3
	C2.5,3,1.6,3.3,1.2,4c-0.6,1,0,2.5,1.4,4c-0.5,0.6-5.9,7.2,2.8,4.8C6,14.8,7,16,8.1,16c1.1,0,2.1-1.2,2.8-3.2
	c0.6,0.1,1.2,0.2,1.7,0.2c1.2,0,2.1-0.3,2.5-1c0.6-1,0-2.5-1.4-4C16.7,4.9,16.2,2.1,10.9,3.1z M2,4.5C2.2,4.2,2.8,4,3.6,4
	C4.1,4,4.5,4,5,4.1C4.9,4.7,4.8,5.4,4.7,6.1c-0.5,0.4-1,0.8-1.5,1.2C2.2,6.1,1.8,5,2,4.5z M4.6,8.6C4.4,8.4,4.2,8.2,4,8
	c0.2-0.2,0.4-0.4,0.7-0.6c0,0.2,0,0.4,0,0.6C4.6,8.2,4.6,8.4,4.6,8.6z M3.3,8.8C3.7,9.2,4.2,9.6,4.7,10c0.1,0.7,0.2,1.4,0.3,2
	C-0.8,13.9,2.6,9.4,3.3,8.8z M10.4,5.3C10.2,5.2,10,5.1,9.9,5C9.7,4.8,9.5,4.7,9.3,4.6c0.3-0.1,0.6-0.2,0.9-0.3
	C10.3,4.6,10.3,4.9,10.4,5.3z M8.1,1c0.6,0,1.3,0.9,1.8,2.4C9.3,3.5,8.7,3.8,8.1,4.1C7.5,3.8,6.9,3.6,6.3,3.4C6.8,1.9,7.5,1,8.1,1z
	 M6,4.4c0.3,0.1,0.6,0.2,0.9,0.3C6.7,4.8,6.5,4.9,6.3,5C6.1,5.1,6,5.2,5.8,5.3C5.9,5,5.9,4.7,6,4.4z M5.8,10.7
	C6,10.8,6.2,10.9,6.4,11c0.2,0.1,0.4,0.2,0.6,0.3c-0.3,0.1-0.6,0.2-0.9,0.3C6,11.4,5.9,11,5.8,10.7z M8.1,15c-0.6,0-1.3-0.9-1.8-2.4
	c0.6-0.2,1.2-0.4,1.8-0.7c0.6,0.3,1.2,0.5,1.8,0.6C9.4,14.1,8.7,15,8.1,15z M10.2,11.6c-0.3-0.1-0.6-0.2-0.9-0.3
	c0.2-0.1,0.4-0.2,0.6-0.3c0.2-0.1,0.3-0.2,0.5-0.3C10.3,11,10.3,11.3,10.2,11.6z M10.6,9.4c-0.4,0.3-0.7,0.5-1.1,0.8
	c-0.4,0.3-0.8,0.5-1.3,0.7c-0.4-0.2-0.9-0.4-1.3-0.7C6.4,9.9,6,9.7,5.7,9.4C5.6,9,5.6,8.5,5.6,8c0-0.5,0-0.9,0.1-1.4
	C6,6.4,6.4,6.1,6.8,5.9c0.4-0.3,0.8-0.5,1.3-0.7c0.4,0.2,0.9,0.4,1.3,0.7c0.4,0.2,0.8,0.5,1.2,0.8c0,0.4,0.1,0.9,0.1,1.4
	C10.6,8.5,10.6,8.9,10.6,9.4z M12.9,7.2C12.5,6.8,12,6.4,11.5,6c-0.1-0.7-0.2-1.4-0.3-2C11.5,4,17.2,2.9,12.9,7.2z M11.6,7.4
	c0.2,0.2,0.5,0.4,0.7,0.6c-0.2,0.2-0.4,0.4-0.7,0.6c0-0.2,0-0.4,0-0.6C11.6,7.8,11.6,7.6,11.6,7.4z M14.2,11.5
	C14,11.8,13.4,12,12.6,12c-0.4,0-0.9-0.1-1.4-0.2c0.1-0.6,0.3-1.3,0.3-1.9c0.5-0.4,1-0.8,1.4-1.2C14,9.9,14.5,11,14.2,11.5z"/>
</svg>
