<?xml version="1.0" encoding="utf-8"?>
<!-- Generator: Adobe Illustrator 18.1.1, SVG Export Plug-In . SVG Version: 6.00 Build 0)  -->
<svg version="1.1" id="Layer_2" xmlns="http://www.w3.org/2000/svg" xmlns:xlink="http://www.w3.org/1999/xlink" x="0px" y="0px"
	 viewBox="0 0 16 16" enable-background="new 0 0 16 16" xml:space="preserve">
<g>
	<path fill="#FFFFFF" d="M10,6.7L9.7,6c0,0,0.7-1.5,0.6-1.6L9.5,3.5C9.4,3.5,7.9,4.2,7.9,4.2L7.1,3.9c0,0-0.6-1.6-0.7-1.6H5.2
		c-0.1,0-0.7,1.6-0.7,1.6L3.8,4.2c0,0-1.6-0.7-1.6-0.6L1.2,4.4C1.2,4.5,1.9,6,1.9,6L1.6,6.7c0,0-1.6,0.6-1.6,0.7v1.3
		c0,0.1,1.6,0.7,1.6,0.7L1.9,10c0,0-0.7,1.5-0.6,1.6l0.9,0.9c0.1,0.1,1.6-0.6,1.6-0.6l0.7,0.3c0,0,0.6,1.6,0.7,1.6h1.3
		c0.1,0,0.7-1.6,0.7-1.6l0.7-0.3c0,0,1.6,0.7,1.6,0.6l0.9-0.9c0.1-0.1-0.7-1.6-0.7-1.6L10,9.3c0,0,1.6-0.6,1.6-0.7V7.3
		C11.6,7.3,10,6.7,10,6.7z M5.8,9.8C4.8,9.8,4,9,4,8c0-1,0.8-1.8,1.9-1.8c1,0,1.9,0.8,1.9,1.8C7.7,9,6.8,9.8,5.8,9.8z"/>
	<path fill="#FFFFFF" d="M15.4,5.2l0-0.4c0,0,0.6-0.5,0.6-0.6l-0.2-0.6c0,0-0.8,0-0.8,0l-0.3-0.3c0,0,0-0.8,0-0.8l-0.6-0.3
		c0,0-0.6,0.6-0.6,0.6l-0.4,0c0,0-0.6-0.6-0.6-0.6L12,2.5c0,0,0,0.8,0,0.8l-0.3,0.2c0,0-0.8,0-0.8,0l-0.2,0.5c0,0,0.6,0.6,0.6,0.6
		l0,0.4c0,0-0.6,0.5-0.6,0.6l0.2,0.6c0,0,0.8,0,0.8,0l0.3,0.3c0,0,0,0.8,0,0.8l0.6,0.3c0,0,0.6-0.6,0.6-0.6l0.4,0
		c0,0,0.6,0.6,0.6,0.6l0.6-0.2c0,0,0-0.8,0-0.8l0.3-0.2c0,0,0.8,0,0.8,0l0.2-0.5C16,5.8,15.4,5.2,15.4,5.2z M14.1,5.3
		c-0.2,0.4-0.7,0.6-1.2,0.4c-0.5-0.2-0.7-0.7-0.5-1.2c0.2-0.4,0.7-0.6,1.2-0.4C14.1,4.4,14.3,4.9,14.1,5.3z"/>
</g>
</svg>
