<?xml version="1.0" encoding="utf-8"?>
<!-- Generator: Adobe Illustrator 18.1.1, SVG Export Plug-In . SVG Version: 6.00 Build 0)  -->
<svg version="1.1" id="Layer_2" xmlns="http://www.w3.org/2000/svg" xmlns:xlink="http://www.w3.org/1999/xlink" x="0px" y="0px"
	 viewBox="0 0 16 16" enable-background="new 0 0 16 16" xml:space="preserve">
<g>
	<g>
		<path fill="#757575" d="M15.9,3.9l-7.7,7.7c-0.2,0.2-0.5,0.2-0.7,0l-0.2-0.2l0,0l-0.2-0.2l-0.7-0.7l0,0L3,7.2C2.8,7,2.8,6.7,3,6.5
			l1.1-1c0.2-0.2,0.5-0.2,0.7,0l3,3l6.3-6.3c0.2-0.2,0.5-0.2,0.7,0l1.1,1.1C16,3.4,16,3.7,15.9,3.9z"/>
	</g>
	<path fill="#757575" d="M12.5,13c0,0.6-0.5,1-1,1H2c-0.6,0-1-0.5-1-1V3c0-0.6,0.5-1,1-1h9.5c0.6,0,1,0.5,1,1l0,0l0.7-0.7
		C13.4,1.5,12.5,1,11.5,1H2C0.9,1,0,1.9,0,3v10c0,1.1,0.9,2,2,2h9.5c1.1,0,2-0.9,2-2V7l-1,1.1V13z"/>
</g>
</svg>
