<?xml version="1.0" encoding="utf-8"?>
<!-- Generator: Adobe Illustrator 18.1.1, SVG Export Plug-In . SVG Version: 6.00 Build 0)  -->
<svg version="1.1" id="Layer_1" xmlns="http://www.w3.org/2000/svg" xmlns:xlink="http://www.w3.org/1999/xlink" x="0px" y="0px"
	 viewBox="0 0 16 16" enable-background="new 0 0 16 16" xml:space="preserve">
<g>
	<path fill="#FFFFFF" d="M11.6,16v-2.3c0-0.5,0.4-0.9,0.9-0.9l1.8-0.1L11.6,16z"/>
	<path fill="#FFFFFF" d="M13.4,0H2.6C2.1,0,1.8,0.4,1.8,0.9v14.3c0,0.5,0.4,0.9,0.9,0.9h8.1v-3.1c0-0.5,0.4-0.9,0.9-0.9h2.7V0.9
		C14.2,0.4,13.9,0,13.4,0z M12.8,2.5c0,0.1-0.2,0.3-0.3,0.3H3.4C3.2,2.7,3,2.6,3,2.5V2c0-0.1,0.2-0.3,0.3-0.3h9.1
		c0.2,0,0.3,0.1,0.3,0.3V2.5z M12.8,4.3c0,0.1-0.2,0.3-0.3,0.3H3.4C3.2,4.5,3,4.4,3,4.3V3.8c0-0.1,0.2-0.2,0.3-0.2h9.1
		c0.2,0,0.3,0.1,0.3,0.2V4.3z M12.8,6.1c0,0.1-0.2,0.3-0.3,0.3H3.4C3.2,6.3,3,6.2,3,6.1V5.7c0-0.1,0.2-0.2,0.3-0.2h9.1
		c0.2,0,0.3,0.1,0.3,0.2V6.1z M8.2,7.9C8.2,8,8.1,8.2,8,8.2H3.2C3.1,8.2,3,8,3,7.9V7.5c0-0.1,0.1-0.2,0.2-0.2H8
		c0.1,0,0.2,0.1,0.2,0.2V7.9z"/>
</g>
</svg>
